<svg xmlns="http://www.w3.org/2000/svg" width="244" height="248" viewBox="0 0 244 248" font-family="Helvetica, Arial, sans-serif">
<rect width="100%" height="100%" fill="white"/>
<text x="14" y="26" font-size="13" font-weight="700" fill="#222">R fires (11 x 12)</text>
<rect x="14" y="54" width="18" height="18" fill="#7F77DD" fill-opacity="0.18"/>
<rect x="32" y="54" width="18" height="18" fill="#7F77DD" fill-opacity="0.18"/>
<rect x="50" y="54" width="18" height="18" fill="#7F77DD" fill-opacity="0.18"/>
<rect x="50" y="36" width="18" height="18" fill="#7F77DD" fill-opacity="0.18"/>
<rect x="68" y="36" width="18" height="18" fill="#7F77DD" fill-opacity="0.18"/>
<rect x="86" y="36" width="18" height="18" fill="#7F77DD" fill-opacity="0.18"/>
<rect x="104" y="36" width="18" height="18" fill="#7F77DD" fill-opacity="0.18"/>
<rect x="122" y="36" width="18" height="18" fill="#7F77DD" fill-opacity="0.18"/>
<rect x="140" y="36" width="18" height="18" fill="#7F77DD" fill-opacity="0.18"/>
<rect x="158" y="36" width="18" height="18" fill="#7F77DD" fill-opacity="0.18"/>
<rect x="176" y="36" width="18" height="18" fill="#7F77DD" fill-opacity="0.18"/>
<rect x="194" y="36" width="18" height="18" fill="#7F77DD" fill-opacity="0.18"/>
<rect x="194" y="54" width="18" height="18" fill="#7F77DD" fill-opacity="0.18"/>
<rect x="194" y="72" width="18" height="18" fill="#7F77DD" fill-opacity="0.18"/>
<rect x="212" y="72" width="18" height="18" fill="#7F77DD" fill-opacity="0.18"/>
<rect x="212" y="90" width="18" height="18" fill="#7F77DD" fill-opacity="0.18"/>
<rect x="212" y="108" width="18" height="18" fill="#7F77DD" fill-opacity="0.18"/>
<rect x="212" y="126" width="18" height="18" fill="#7F77DD" fill-opacity="0.18"/>
<rect x="212" y="144" width="18" height="18" fill="#7F77DD" fill-opacity="0.18"/>
<rect x="212" y="162" width="18" height="18" fill="#7F77DD" fill-opacity="0.18"/>
<rect x="212" y="180" width="18" height="18" fill="#7F77DD" fill-opacity="0.18"/>
<rect x="194" y="180" width="18" height="18" fill="#7F77DD" fill-opacity="0.18"/>
<rect x="194" y="198" width="18" height="18" fill="#7F77DD" fill-opacity="0.18"/>
<rect x="194" y="216" width="18" height="18" fill="#7F77DD" fill-opacity="0.18"/>
<rect x="176" y="216" width="18" height="18" fill="#7F77DD" fill-opacity="0.18"/>
<rect x="158" y="216" width="18" height="18" fill="#7F77DD" fill-opacity="0.18"/>
<rect x="140" y="216" width="18" height="18" fill="#7F77DD" fill-opacity="0.18"/>
<rect x="122" y="216" width="18" height="18" fill="#7F77DD" fill-opacity="0.18"/>
<rect x="104" y="216" width="18" height="18" fill="#7F77DD" fill-opacity="0.18"/>
<rect x="86" y="216" width="18" height="18" fill="#7F77DD" fill-opacity="0.18"/>
<rect x="68" y="216" width="18" height="18" fill="#7F77DD" fill-opacity="0.18"/>
<rect x="50" y="216" width="18" height="18" fill="#7F77DD" fill-opacity="0.18"/>
<rect x="32" y="216" width="18" height="18" fill="#7F77DD" fill-opacity="0.18"/>
<rect x="14" y="216" width="18" height="18" fill="#7F77DD" fill-opacity="0.18"/>
<rect x="14" y="198" width="18" height="18" fill="#7F77DD" fill-opacity="0.18"/>
<rect x="14" y="180" width="18" height="18" fill="#7F77DD" fill-opacity="0.18"/>
<rect x="14" y="162" width="18" height="18" fill="#7F77DD" fill-opacity="0.18"/>
<rect x="14" y="144" width="18" height="18" fill="#7F77DD" fill-opacity="0.18"/>
<rect x="14" y="126" width="18" height="18" fill="#7F77DD" fill-opacity="0.18"/>
<rect x="14" y="108" width="18" height="18" fill="#7F77DD" fill-opacity="0.18"/>
<rect x="14" y="90" width="18" height="18" fill="#7F77DD" fill-opacity="0.18"/>
<rect x="14" y="72" width="18" height="18" fill="#7F77DD" fill-opacity="0.18"/>
<rect x="14" y="36" width="18" height="18" fill="#9aa0a6" fill-opacity="0.55"/>
<rect x="32" y="36" width="18" height="18" fill="#9aa0a6" fill-opacity="0.55"/>
<rect x="212" y="36" width="18" height="18" fill="#9aa0a6" fill-opacity="0.55"/>
<rect x="212" y="54" width="18" height="18" fill="#9aa0a6" fill-opacity="0.55"/>
<rect x="212" y="216" width="18" height="18" fill="#9aa0a6" fill-opacity="0.55"/>
<rect x="212" y="198" width="18" height="18" fill="#9aa0a6" fill-opacity="0.55"/>
<line x1="14" y1="36" x2="230" y2="36" stroke="#c8c8c8" stroke-width="0.6"/>
<line x1="14" y1="54" x2="230" y2="54" stroke="#c8c8c8" stroke-width="0.6"/>
<line x1="14" y1="72" x2="230" y2="72" stroke="#c8c8c8" stroke-width="0.6"/>
<line x1="14" y1="90" x2="230" y2="90" stroke="#c8c8c8" stroke-width="0.6"/>
<line x1="14" y1="108" x2="230" y2="108" stroke="#c8c8c8" stroke-width="0.6"/>
<line x1="14" y1="126" x2="230" y2="126" stroke="#c8c8c8" stroke-width="0.6"/>
<line x1="14" y1="144" x2="230" y2="144" stroke="#c8c8c8" stroke-width="0.6"/>
<line x1="14" y1="162" x2="230" y2="162" stroke="#c8c8c8" stroke-width="0.6"/>
<line x1="14" y1="180" x2="230" y2="180" stroke="#c8c8c8" stroke-width="0.6"/>
<line x1="14" y1="198" x2="230" y2="198" stroke="#c8c8c8" stroke-width="0.6"/>
<line x1="14" y1="216" x2="230" y2="216" stroke="#c8c8c8" stroke-width="0.6"/>
<line x1="14" y1="234" x2="230" y2="234" stroke="#c8c8c8" stroke-width="0.6"/>
<line x1="14" y1="36" x2="14" y2="234" stroke="#c8c8c8" stroke-width="0.6"/>
<line x1="32" y1="36" x2="32" y2="234" stroke="#c8c8c8" stroke-width="0.6"/>
<line x1="50" y1="36" x2="50" y2="234" stroke="#c8c8c8" stroke-width="0.6"/>
<line x1="68" y1="36" x2="68" y2="234" stroke="#c8c8c8" stroke-width="0.6"/>
<line x1="86" y1="36" x2="86" y2="234" stroke="#c8c8c8" stroke-width="0.6"/>
<line x1="104" y1="36" x2="104" y2="234" stroke="#c8c8c8" stroke-width="0.6"/>
<line x1="122" y1="36" x2="122" y2="234" stroke="#c8c8c8" stroke-width="0.6"/>
<line x1="140" y1="36" x2="140" y2="234" stroke="#c8c8c8" stroke-width="0.6"/>
<line x1="158" y1="36" x2="158" y2="234" stroke="#c8c8c8" stroke-width="0.6"/>
<line x1="176" y1="36" x2="176" y2="234" stroke="#c8c8c8" stroke-width="0.6"/>
<line x1="194" y1="36" x2="194" y2="234" stroke="#c8c8c8" stroke-width="0.6"/>
<line x1="212" y1="36" x2="212" y2="234" stroke="#c8c8c8" stroke-width="0.6"/>
<line x1="230" y1="36" x2="230" y2="234" stroke="#c8c8c8" stroke-width="0.6"/>
<rect x="14" y="36" width="216" height="198" fill="none" stroke="#333" stroke-width="1.4"/>
<circle cx="203.0" cy="45.0" r="6.4799999999999995" fill="white" stroke="#1D9E75" stroke-width="2" stroke-dasharray="3 2"/>
<circle cx="203.0" cy="225.0" r="6.4799999999999995" fill="white" stroke="#1D9E75" stroke-width="2" stroke-dasharray="3 2"/>
<circle cx="23.0" cy="63.0" r="6.4799999999999995" fill="white" stroke="#D85A30" stroke-width="2" stroke-dasharray="3 2"/>
<circle cx="221.0" cy="63.0" r="6.4799999999999995" fill="#1D9E75"/>
<text x="221.0" y="66.5" font-size="6" font-weight="700" fill="white" text-anchor="middle">s0</text>
<circle cx="221.0" cy="207.0" r="6.4799999999999995" fill="#1D9E75"/>
<text x="221.0" y="210.5" font-size="6" font-weight="700" fill="white" text-anchor="middle">t0</text>
<circle cx="203.0" cy="63.0" r="6.4799999999999995" fill="#D85A30"/>
<text x="203.0" y="66.5" font-size="6" font-weight="700" fill="white" text-anchor="middle">s1</text>
<circle cx="41.0" cy="45.0" r="6.4799999999999995" fill="#D85A30"/>
<text x="41.0" y="48.5" font-size="6" font-weight="700" fill="white" text-anchor="middle">t1</text>
</svg>