<svg xmlns="http://www.w3.org/2000/svg" width="268" height="236" viewBox="0 0 268 236" font-family="Helvetica, Arial, sans-serif">
<rect width="100%" height="100%" fill="white"/>
<text x="14" y="26" font-size="13" font-weight="700" fill="#222">Unsolvable</text>
<line x1="14" y1="36" x2="254" y2="36" stroke="#c8c8c8" stroke-width="0.6"/>
<line x1="14" y1="60" x2="254" y2="60" stroke="#c8c8c8" stroke-width="0.6"/>
<line x1="14" y1="84" x2="254" y2="84" stroke="#c8c8c8" stroke-width="0.6"/>
<line x1="14" y1="108" x2="254" y2="108" stroke="#c8c8c8" stroke-width="0.6"/>
<line x1="14" y1="132" x2="254" y2="132" stroke="#c8c8c8" stroke-width="0.6"/>
<line x1="14" y1="156" x2="254" y2="156" stroke="#c8c8c8" stroke-width="0.6"/>
<line x1="14" y1="180" x2="254" y2="180" stroke="#c8c8c8" stroke-width="0.6"/>
<line x1="14" y1="204" x2="254" y2="204" stroke="#c8c8c8" stroke-width="0.6"/>
<line x1="14" y1="36" x2="14" y2="204" stroke="#c8c8c8" stroke-width="0.6"/>
<line x1="38" y1="36" x2="38" y2="204" stroke="#c8c8c8" stroke-width="0.6"/>
<line x1="62" y1="36" x2="62" y2="204" stroke="#c8c8c8" stroke-width="0.6"/>
<line x1="86" y1="36" x2="86" y2="204" stroke="#c8c8c8" stroke-width="0.6"/>
<line x1="110" y1="36" x2="110" y2="204" stroke="#c8c8c8" stroke-width="0.6"/>
<line x1="134" y1="36" x2="134" y2="204" stroke="#c8c8c8" stroke-width="0.6"/>
<line x1="158" y1="36" x2="158" y2="204" stroke="#c8c8c8" stroke-width="0.6"/>
<line x1="182" y1="36" x2="182" y2="204" stroke="#c8c8c8" stroke-width="0.6"/>
<line x1="206" y1="36" x2="206" y2="204" stroke="#c8c8c8" stroke-width="0.6"/>
<line x1="230" y1="36" x2="230" y2="204" stroke="#c8c8c8" stroke-width="0.6"/>
<line x1="254" y1="36" x2="254" y2="204" stroke="#c8c8c8" stroke-width="0.6"/>
<rect x="14" y="36" width="240" height="168" fill="none" stroke="#333" stroke-width="1.4"/>
<circle cx="74.0" cy="48.0" r="8.64" fill="#1D9E75"/>
<text x="74.0" y="51.5" font-size="8" font-weight="700" fill="white" text-anchor="middle">s0</text>
<circle cx="194.0" cy="192.0" r="8.64" fill="#1D9E75"/>
<text x="194.0" y="195.5" font-size="8" font-weight="700" fill="white" text-anchor="middle">t0</text>
<circle cx="194.0" cy="48.0" r="8.64" fill="#D85A30"/>
<text x="194.0" y="51.5" font-size="8" font-weight="700" fill="white" text-anchor="middle">s1</text>
<circle cx="74.0" cy="192.0" r="8.64" fill="#D85A30"/>
<text x="74.0" y="195.5" font-size="8" font-weight="700" fill="white" text-anchor="middle">t1</text>
<text x="14" y="230" font-size="11" fill="#555">the pairs alternate around the border</text>
</svg>