<svg xmlns="http://www.w3.org/2000/svg" width="274" height="338" viewBox="0 0 274 338" font-family="Helvetica, Arial, sans-serif">
<rect width="100%" height="100%" fill="white"/>
<text x="26" y="26" font-size="13" font-weight="700" fill="#222">16 x 13 instance</text>
<line x1="26" y1="36" x2="260" y2="36" stroke="#c8c8c8" stroke-width="0.6"/>
<line x1="26" y1="54" x2="260" y2="54" stroke="#c8c8c8" stroke-width="0.6"/>
<line x1="26" y1="72" x2="260" y2="72" stroke="#c8c8c8" stroke-width="0.6"/>
<line x1="26" y1="90" x2="260" y2="90" stroke="#c8c8c8" stroke-width="0.6"/>
<line x1="26" y1="108" x2="260" y2="108" stroke="#c8c8c8" stroke-width="0.6"/>
<line x1="26" y1="126" x2="260" y2="126" stroke="#c8c8c8" stroke-width="0.6"/>
<line x1="26" y1="144" x2="260" y2="144" stroke="#c8c8c8" stroke-width="0.6"/>
<line x1="26" y1="162" x2="260" y2="162" stroke="#c8c8c8" stroke-width="0.6"/>
<line x1="26" y1="180" x2="260" y2="180" stroke="#c8c8c8" stroke-width="0.6"/>
<line x1="26" y1="198" x2="260" y2="198" stroke="#c8c8c8" stroke-width="0.6"/>
<line x1="26" y1="216" x2="260" y2="216" stroke="#c8c8c8" stroke-width="0.6"/>
<line x1="26" y1="234" x2="260" y2="234" stroke="#c8c8c8" stroke-width="0.6"/>
<line x1="26" y1="252" x2="260" y2="252" stroke="#c8c8c8" stroke-width="0.6"/>
<line x1="26" y1="270" x2="260" y2="270" stroke="#c8c8c8" stroke-width="0.6"/>
<line x1="26" y1="288" x2="260" y2="288" stroke="#c8c8c8" stroke-width="0.6"/>
<line x1="26" y1="306" x2="260" y2="306" stroke="#c8c8c8" stroke-width="0.6"/>
<line x1="26" y1="324" x2="260" y2="324" stroke="#c8c8c8" stroke-width="0.6"/>
<line x1="26" y1="36" x2="26" y2="324" stroke="#c8c8c8" stroke-width="0.6"/>
<line x1="44" y1="36" x2="44" y2="324" stroke="#c8c8c8" stroke-width="0.6"/>
<line x1="62" y1="36" x2="62" y2="324" stroke="#c8c8c8" stroke-width="0.6"/>
<line x1="80" y1="36" x2="80" y2="324" stroke="#c8c8c8" stroke-width="0.6"/>
<line x1="98" y1="36" x2="98" y2="324" stroke="#c8c8c8" stroke-width="0.6"/>
<line x1="116" y1="36" x2="116" y2="324" stroke="#c8c8c8" stroke-width="0.6"/>
<line x1="134" y1="36" x2="134" y2="324" stroke="#c8c8c8" stroke-width="0.6"/>
<line x1="152" y1="36" x2="152" y2="324" stroke="#c8c8c8" stroke-width="0.6"/>
<line x1="170" y1="36" x2="170" y2="324" stroke="#c8c8c8" stroke-width="0.6"/>
<line x1="188" y1="36" x2="188" y2="324" stroke="#c8c8c8" stroke-width="0.6"/>
<line x1="206" y1="36" x2="206" y2="324" stroke="#c8c8c8" stroke-width="0.6"/>
<line x1="224" y1="36" x2="224" y2="324" stroke="#c8c8c8" stroke-width="0.6"/>
<line x1="242" y1="36" x2="242" y2="324" stroke="#c8c8c8" stroke-width="0.6"/>
<line x1="260" y1="36" x2="260" y2="324" stroke="#c8c8c8" stroke-width="0.6"/>
<rect x="26" y="36" width="234" height="288" fill="none" stroke="#333" stroke-width="1.4"/>
<text x="23" y="48.0" font-size="8" fill="#888" text-anchor="end">0</text>
<text x="23" y="66.0" font-size="8" fill="#888" text-anchor="end">1</text>
<text x="23" y="84.0" font-size="8" fill="#888" text-anchor="end">2</text>
<text x="23" y="102.0" font-size="8" fill="#888" text-anchor="end">3</text>
<text x="23" y="120.0" font-size="8" fill="#888" text-anchor="end">4</text>
<text x="23" y="138.0" font-size="8" fill="#888" text-anchor="end">5</text>
<text x="23" y="156.0" font-size="8" fill="#888" text-anchor="end">6</text>
<text x="23" y="174.0" font-size="8" fill="#888" text-anchor="end">7</text>
<text x="23" y="192.0" font-size="8" fill="#888" text-anchor="end">8</text>
<text x="23" y="210.0" font-size="8" fill="#888" text-anchor="end">9</text>
<text x="23" y="228.0" font-size="8" fill="#888" text-anchor="end">10</text>
<text x="23" y="246.0" font-size="8" fill="#888" text-anchor="end">11</text>
<text x="23" y="264.0" font-size="8" fill="#888" text-anchor="end">12</text>
<text x="23" y="282.0" font-size="8" fill="#888" text-anchor="end">13</text>
<text x="23" y="300.0" font-size="8" fill="#888" text-anchor="end">14</text>
<text x="23" y="318.0" font-size="8" fill="#888" text-anchor="end">15</text>
<circle cx="71.0" cy="135.0" r="6.4799999999999995" fill="#1D9E75"/>
<text x="71.0" y="138.5" font-size="6" font-weight="700" fill="white" text-anchor="middle">s0</text>
<circle cx="215.0" cy="261.0" r="6.4799999999999995" fill="#1D9E75"/>
<text x="215.0" y="264.5" font-size="6" font-weight="700" fill="white" text-anchor="middle">t0</text>
<circle cx="197.0" cy="153.0" r="6.4799999999999995" fill="#D85A30"/>
<text x="197.0" y="156.5" font-size="6" font-weight="700" fill="white" text-anchor="middle">s1</text>
<circle cx="89.0" cy="279.0" r="6.4799999999999995" fill="#D85A30"/>
<text x="89.0" y="282.5" font-size="6" font-weight="700" fill="white" text-anchor="middle">t1</text>
</svg>