<svg xmlns="http://www.w3.org/2000/svg" width="262" height="266" viewBox="0 0 262 266" font-family="Helvetica, Arial, sans-serif">
<rect width="100%" height="100%" fill="white"/>
<text x="14" y="26" font-size="13" font-weight="700" fill="#222">Step 3: 12 x 13, strip move</text>
<rect x="212" y="36" width="18" height="18" fill="#7F77DD" fill-opacity="0.18"/>
<rect x="230" y="36" width="18" height="18" fill="#7F77DD" fill-opacity="0.18"/>
<rect x="212" y="54" width="18" height="18" fill="#7F77DD" fill-opacity="0.18"/>
<rect x="230" y="54" width="18" height="18" fill="#7F77DD" fill-opacity="0.18"/>
<rect x="212" y="72" width="18" height="18" fill="#7F77DD" fill-opacity="0.18"/>
<rect x="230" y="72" width="18" height="18" fill="#7F77DD" fill-opacity="0.18"/>
<rect x="212" y="90" width="18" height="18" fill="#7F77DD" fill-opacity="0.18"/>
<rect x="230" y="90" width="18" height="18" fill="#7F77DD" fill-opacity="0.18"/>
<rect x="212" y="108" width="18" height="18" fill="#7F77DD" fill-opacity="0.18"/>
<rect x="230" y="108" width="18" height="18" fill="#7F77DD" fill-opacity="0.18"/>
<rect x="212" y="126" width="18" height="18" fill="#7F77DD" fill-opacity="0.18"/>
<rect x="230" y="126" width="18" height="18" fill="#7F77DD" fill-opacity="0.18"/>
<rect x="212" y="144" width="18" height="18" fill="#7F77DD" fill-opacity="0.18"/>
<rect x="230" y="144" width="18" height="18" fill="#7F77DD" fill-opacity="0.18"/>
<rect x="212" y="162" width="18" height="18" fill="#7F77DD" fill-opacity="0.18"/>
<rect x="230" y="162" width="18" height="18" fill="#7F77DD" fill-opacity="0.18"/>
<rect x="212" y="180" width="18" height="18" fill="#7F77DD" fill-opacity="0.18"/>
<rect x="230" y="180" width="18" height="18" fill="#7F77DD" fill-opacity="0.18"/>
<rect x="212" y="198" width="18" height="18" fill="#7F77DD" fill-opacity="0.18"/>
<rect x="230" y="198" width="18" height="18" fill="#7F77DD" fill-opacity="0.18"/>
<rect x="212" y="216" width="18" height="18" fill="#7F77DD" fill-opacity="0.18"/>
<rect x="230" y="216" width="18" height="18" fill="#7F77DD" fill-opacity="0.18"/>
<rect x="212" y="234" width="18" height="18" fill="#7F77DD" fill-opacity="0.18"/>
<rect x="230" y="234" width="18" height="18" fill="#7F77DD" fill-opacity="0.18"/>
<line x1="14" y1="36" x2="248" y2="36" stroke="#c8c8c8" stroke-width="0.6"/>
<line x1="14" y1="54" x2="248" y2="54" stroke="#c8c8c8" stroke-width="0.6"/>
<line x1="14" y1="72" x2="248" y2="72" stroke="#c8c8c8" stroke-width="0.6"/>
<line x1="14" y1="90" x2="248" y2="90" stroke="#c8c8c8" stroke-width="0.6"/>
<line x1="14" y1="108" x2="248" y2="108" stroke="#c8c8c8" stroke-width="0.6"/>
<line x1="14" y1="126" x2="248" y2="126" stroke="#c8c8c8" stroke-width="0.6"/>
<line x1="14" y1="144" x2="248" y2="144" stroke="#c8c8c8" stroke-width="0.6"/>
<line x1="14" y1="162" x2="248" y2="162" stroke="#c8c8c8" stroke-width="0.6"/>
<line x1="14" y1="180" x2="248" y2="180" stroke="#c8c8c8" stroke-width="0.6"/>
<line x1="14" y1="198" x2="248" y2="198" stroke="#c8c8c8" stroke-width="0.6"/>
<line x1="14" y1="216" x2="248" y2="216" stroke="#c8c8c8" stroke-width="0.6"/>
<line x1="14" y1="234" x2="248" y2="234" stroke="#c8c8c8" stroke-width="0.6"/>
<line x1="14" y1="252" x2="248" y2="252" stroke="#c8c8c8" stroke-width="0.6"/>
<line x1="14" y1="36" x2="14" y2="252" stroke="#c8c8c8" stroke-width="0.6"/>
<line x1="32" y1="36" x2="32" y2="252" stroke="#c8c8c8" stroke-width="0.6"/>
<line x1="50" y1="36" x2="50" y2="252" stroke="#c8c8c8" stroke-width="0.6"/>
<line x1="68" y1="36" x2="68" y2="252" stroke="#c8c8c8" stroke-width="0.6"/>
<line x1="86" y1="36" x2="86" y2="252" stroke="#c8c8c8" stroke-width="0.6"/>
<line x1="104" y1="36" x2="104" y2="252" stroke="#c8c8c8" stroke-width="0.6"/>
<line x1="122" y1="36" x2="122" y2="252" stroke="#c8c8c8" stroke-width="0.6"/>
<line x1="140" y1="36" x2="140" y2="252" stroke="#c8c8c8" stroke-width="0.6"/>
<line x1="158" y1="36" x2="158" y2="252" stroke="#c8c8c8" stroke-width="0.6"/>
<line x1="176" y1="36" x2="176" y2="252" stroke="#c8c8c8" stroke-width="0.6"/>
<line x1="194" y1="36" x2="194" y2="252" stroke="#c8c8c8" stroke-width="0.6"/>
<line x1="212" y1="36" x2="212" y2="252" stroke="#c8c8c8" stroke-width="0.6"/>
<line x1="230" y1="36" x2="230" y2="252" stroke="#c8c8c8" stroke-width="0.6"/>
<line x1="248" y1="36" x2="248" y2="252" stroke="#c8c8c8" stroke-width="0.6"/>
<rect x="14" y="36" width="234" height="216" fill="none" stroke="#333" stroke-width="1.4"/>
<line x1="212" y1="30" x2="212" y2="258" stroke="#7F77DD" stroke-width="2.4" stroke-dasharray="7 4"/>
<circle cx="59.0" cy="99.0" r="6.4799999999999995" fill="#1D9E75"/>
<text x="59.0" y="102.5" font-size="6" font-weight="700" fill="white" text-anchor="middle">s0</text>
<circle cx="203.0" cy="225.0" r="6.4799999999999995" fill="#1D9E75"/>
<text x="203.0" y="228.5" font-size="6" font-weight="700" fill="white" text-anchor="middle">t0</text>
<circle cx="185.0" cy="117.0" r="6.4799999999999995" fill="#D85A30"/>
<text x="185.0" y="120.5" font-size="6" font-weight="700" fill="white" text-anchor="middle">s1</text>
<circle cx="77.0" cy="243.0" r="6.4799999999999995" fill="#D85A30"/>
<text x="77.0" y="246.5" font-size="6" font-weight="700" fill="white" text-anchor="middle">t1</text>
</svg>