<svg xmlns="http://www.w3.org/2000/svg" width="160" height="338" viewBox="0 0 160 338" font-family="Helvetica, Arial, sans-serif">
<rect width="100%" height="100%" fill="white"/>
<text x="14" y="26" font-size="13" font-weight="700" fill="#222">(K) compression: gap of 10+</text>
<rect x="14" y="84" width="12" height="12" fill="#7F77DD" fill-opacity="0.12"/>
<rect x="26" y="84" width="12" height="12" fill="#7F77DD" fill-opacity="0.12"/>
<rect x="38" y="84" width="12" height="12" fill="#7F77DD" fill-opacity="0.12"/>
<rect x="50" y="84" width="12" height="12" fill="#7F77DD" fill-opacity="0.12"/>
<rect x="62" y="84" width="12" height="12" fill="#7F77DD" fill-opacity="0.12"/>
<rect x="74" y="84" width="12" height="12" fill="#7F77DD" fill-opacity="0.12"/>
<rect x="86" y="84" width="12" height="12" fill="#7F77DD" fill-opacity="0.12"/>
<rect x="98" y="84" width="12" height="12" fill="#7F77DD" fill-opacity="0.12"/>
<rect x="110" y="84" width="12" height="12" fill="#7F77DD" fill-opacity="0.12"/>
<rect x="122" y="84" width="12" height="12" fill="#7F77DD" fill-opacity="0.12"/>
<rect x="134" y="84" width="12" height="12" fill="#7F77DD" fill-opacity="0.12"/>
<rect x="14" y="96" width="12" height="12" fill="#7F77DD" fill-opacity="0.12"/>
<rect x="26" y="96" width="12" height="12" fill="#7F77DD" fill-opacity="0.12"/>
<rect x="38" y="96" width="12" height="12" fill="#7F77DD" fill-opacity="0.12"/>
<rect x="50" y="96" width="12" height="12" fill="#7F77DD" fill-opacity="0.12"/>
<rect x="62" y="96" width="12" height="12" fill="#7F77DD" fill-opacity="0.12"/>
<rect x="74" y="96" width="12" height="12" fill="#7F77DD" fill-opacity="0.12"/>
<rect x="86" y="96" width="12" height="12" fill="#7F77DD" fill-opacity="0.12"/>
<rect x="98" y="96" width="12" height="12" fill="#7F77DD" fill-opacity="0.12"/>
<rect x="110" y="96" width="12" height="12" fill="#7F77DD" fill-opacity="0.12"/>
<rect x="122" y="96" width="12" height="12" fill="#7F77DD" fill-opacity="0.12"/>
<rect x="134" y="96" width="12" height="12" fill="#7F77DD" fill-opacity="0.12"/>
<rect x="14" y="108" width="12" height="12" fill="#7F77DD" fill-opacity="0.12"/>
<rect x="26" y="108" width="12" height="12" fill="#7F77DD" fill-opacity="0.12"/>
<rect x="38" y="108" width="12" height="12" fill="#7F77DD" fill-opacity="0.12"/>
<rect x="50" y="108" width="12" height="12" fill="#7F77DD" fill-opacity="0.12"/>
<rect x="62" y="108" width="12" height="12" fill="#7F77DD" fill-opacity="0.12"/>
<rect x="74" y="108" width="12" height="12" fill="#7F77DD" fill-opacity="0.12"/>
<rect x="86" y="108" width="12" height="12" fill="#7F77DD" fill-opacity="0.12"/>
<rect x="98" y="108" width="12" height="12" fill="#7F77DD" fill-opacity="0.12"/>
<rect x="110" y="108" width="12" height="12" fill="#7F77DD" fill-opacity="0.12"/>
<rect x="122" y="108" width="12" height="12" fill="#7F77DD" fill-opacity="0.12"/>
<rect x="134" y="108" width="12" height="12" fill="#7F77DD" fill-opacity="0.12"/>
<rect x="14" y="120" width="12" height="12" fill="#7F77DD" fill-opacity="0.12"/>
<rect x="26" y="120" width="12" height="12" fill="#7F77DD" fill-opacity="0.12"/>
<rect x="38" y="120" width="12" height="12" fill="#7F77DD" fill-opacity="0.12"/>
<rect x="50" y="120" width="12" height="12" fill="#7F77DD" fill-opacity="0.12"/>
<rect x="62" y="120" width="12" height="12" fill="#7F77DD" fill-opacity="0.12"/>
<rect x="74" y="120" width="12" height="12" fill="#7F77DD" fill-opacity="0.12"/>
<rect x="86" y="120" width="12" height="12" fill="#7F77DD" fill-opacity="0.12"/>
<rect x="98" y="120" width="12" height="12" fill="#7F77DD" fill-opacity="0.12"/>
<rect x="110" y="120" width="12" height="12" fill="#7F77DD" fill-opacity="0.12"/>
<rect x="122" y="120" width="12" height="12" fill="#7F77DD" fill-opacity="0.12"/>
<rect x="134" y="120" width="12" height="12" fill="#7F77DD" fill-opacity="0.12"/>
<rect x="14" y="132" width="12" height="12" fill="#7F77DD" fill-opacity="0.12"/>
<rect x="26" y="132" width="12" height="12" fill="#7F77DD" fill-opacity="0.12"/>
<rect x="38" y="132" width="12" height="12" fill="#7F77DD" fill-opacity="0.12"/>
<rect x="50" y="132" width="12" height="12" fill="#7F77DD" fill-opacity="0.12"/>
<rect x="62" y="132" width="12" height="12" fill="#7F77DD" fill-opacity="0.12"/>
<rect x="74" y="132" width="12" height="12" fill="#7F77DD" fill-opacity="0.12"/>
<rect x="86" y="132" width="12" height="12" fill="#7F77DD" fill-opacity="0.12"/>
<rect x="98" y="132" width="12" height="12" fill="#7F77DD" fill-opacity="0.12"/>
<rect x="110" y="132" width="12" height="12" fill="#7F77DD" fill-opacity="0.12"/>
<rect x="122" y="132" width="12" height="12" fill="#7F77DD" fill-opacity="0.12"/>
<rect x="134" y="132" width="12" height="12" fill="#7F77DD" fill-opacity="0.12"/>
<rect x="14" y="144" width="12" height="12" fill="#7F77DD" fill-opacity="0.12"/>
<rect x="26" y="144" width="12" height="12" fill="#7F77DD" fill-opacity="0.12"/>
<rect x="38" y="144" width="12" height="12" fill="#7F77DD" fill-opacity="0.12"/>
<rect x="50" y="144" width="12" height="12" fill="#7F77DD" fill-opacity="0.12"/>
<rect x="62" y="144" width="12" height="12" fill="#7F77DD" fill-opacity="0.12"/>
<rect x="74" y="144" width="12" height="12" fill="#7F77DD" fill-opacity="0.12"/>
<rect x="86" y="144" width="12" height="12" fill="#7F77DD" fill-opacity="0.12"/>
<rect x="98" y="144" width="12" height="12" fill="#7F77DD" fill-opacity="0.12"/>
<rect x="110" y="144" width="12" height="12" fill="#7F77DD" fill-opacity="0.12"/>
<rect x="122" y="144" width="12" height="12" fill="#7F77DD" fill-opacity="0.12"/>
<rect x="134" y="144" width="12" height="12" fill="#7F77DD" fill-opacity="0.12"/>
<rect x="14" y="156" width="12" height="12" fill="#7F77DD" fill-opacity="0.12"/>
<rect x="26" y="156" width="12" height="12" fill="#7F77DD" fill-opacity="0.12"/>
<rect x="38" y="156" width="12" height="12" fill="#7F77DD" fill-opacity="0.12"/>
<rect x="50" y="156" width="12" height="12" fill="#7F77DD" fill-opacity="0.12"/>
<rect x="62" y="156" width="12" height="12" fill="#7F77DD" fill-opacity="0.12"/>
<rect x="74" y="156" width="12" height="12" fill="#7F77DD" fill-opacity="0.12"/>
<rect x="86" y="156" width="12" height="12" fill="#7F77DD" fill-opacity="0.12"/>
<rect x="98" y="156" width="12" height="12" fill="#7F77DD" fill-opacity="0.12"/>
<rect x="110" y="156" width="12" height="12" fill="#7F77DD" fill-opacity="0.12"/>
<rect x="122" y="156" width="12" height="12" fill="#7F77DD" fill-opacity="0.12"/>
<rect x="134" y="156" width="12" height="12" fill="#7F77DD" fill-opacity="0.12"/>
<rect x="14" y="168" width="12" height="12" fill="#7F77DD" fill-opacity="0.12"/>
<rect x="26" y="168" width="12" height="12" fill="#7F77DD" fill-opacity="0.12"/>
<rect x="38" y="168" width="12" height="12" fill="#7F77DD" fill-opacity="0.12"/>
<rect x="50" y="168" width="12" height="12" fill="#7F77DD" fill-opacity="0.12"/>
<rect x="62" y="168" width="12" height="12" fill="#7F77DD" fill-opacity="0.12"/>
<rect x="74" y="168" width="12" height="12" fill="#7F77DD" fill-opacity="0.12"/>
<rect x="86" y="168" width="12" height="12" fill="#7F77DD" fill-opacity="0.12"/>
<rect x="98" y="168" width="12" height="12" fill="#7F77DD" fill-opacity="0.12"/>
<rect x="110" y="168" width="12" height="12" fill="#7F77DD" fill-opacity="0.12"/>
<rect x="122" y="168" width="12" height="12" fill="#7F77DD" fill-opacity="0.12"/>
<rect x="134" y="168" width="12" height="12" fill="#7F77DD" fill-opacity="0.12"/>
<rect x="14" y="180" width="12" height="12" fill="#7F77DD" fill-opacity="0.12"/>
<rect x="26" y="180" width="12" height="12" fill="#7F77DD" fill-opacity="0.12"/>
<rect x="38" y="180" width="12" height="12" fill="#7F77DD" fill-opacity="0.12"/>
<rect x="50" y="180" width="12" height="12" fill="#7F77DD" fill-opacity="0.12"/>
<rect x="62" y="180" width="12" height="12" fill="#7F77DD" fill-opacity="0.12"/>
<rect x="74" y="180" width="12" height="12" fill="#7F77DD" fill-opacity="0.12"/>
<rect x="86" y="180" width="12" height="12" fill="#7F77DD" fill-opacity="0.12"/>
<rect x="98" y="180" width="12" height="12" fill="#7F77DD" fill-opacity="0.12"/>
<rect x="110" y="180" width="12" height="12" fill="#7F77DD" fill-opacity="0.12"/>
<rect x="122" y="180" width="12" height="12" fill="#7F77DD" fill-opacity="0.12"/>
<rect x="134" y="180" width="12" height="12" fill="#7F77DD" fill-opacity="0.12"/>
<rect x="14" y="192" width="12" height="12" fill="#7F77DD" fill-opacity="0.12"/>
<rect x="26" y="192" width="12" height="12" fill="#7F77DD" fill-opacity="0.12"/>
<rect x="38" y="192" width="12" height="12" fill="#7F77DD" fill-opacity="0.12"/>
<rect x="50" y="192" width="12" height="12" fill="#7F77DD" fill-opacity="0.12"/>
<rect x="62" y="192" width="12" height="12" fill="#7F77DD" fill-opacity="0.12"/>
<rect x="74" y="192" width="12" height="12" fill="#7F77DD" fill-opacity="0.12"/>
<rect x="86" y="192" width="12" height="12" fill="#7F77DD" fill-opacity="0.12"/>
<rect x="98" y="192" width="12" height="12" fill="#7F77DD" fill-opacity="0.12"/>
<rect x="110" y="192" width="12" height="12" fill="#7F77DD" fill-opacity="0.12"/>
<rect x="122" y="192" width="12" height="12" fill="#7F77DD" fill-opacity="0.12"/>
<rect x="134" y="192" width="12" height="12" fill="#7F77DD" fill-opacity="0.12"/>
<rect x="14" y="204" width="12" height="12" fill="#7F77DD" fill-opacity="0.12"/>
<rect x="26" y="204" width="12" height="12" fill="#7F77DD" fill-opacity="0.12"/>
<rect x="38" y="204" width="12" height="12" fill="#7F77DD" fill-opacity="0.12"/>
<rect x="50" y="204" width="12" height="12" fill="#7F77DD" fill-opacity="0.12"/>
<rect x="62" y="204" width="12" height="12" fill="#7F77DD" fill-opacity="0.12"/>
<rect x="74" y="204" width="12" height="12" fill="#7F77DD" fill-opacity="0.12"/>
<rect x="86" y="204" width="12" height="12" fill="#7F77DD" fill-opacity="0.12"/>
<rect x="98" y="204" width="12" height="12" fill="#7F77DD" fill-opacity="0.12"/>
<rect x="110" y="204" width="12" height="12" fill="#7F77DD" fill-opacity="0.12"/>
<rect x="122" y="204" width="12" height="12" fill="#7F77DD" fill-opacity="0.12"/>
<rect x="134" y="204" width="12" height="12" fill="#7F77DD" fill-opacity="0.12"/>
<rect x="14" y="216" width="12" height="12" fill="#7F77DD" fill-opacity="0.12"/>
<rect x="26" y="216" width="12" height="12" fill="#7F77DD" fill-opacity="0.12"/>
<rect x="38" y="216" width="12" height="12" fill="#7F77DD" fill-opacity="0.12"/>
<rect x="50" y="216" width="12" height="12" fill="#7F77DD" fill-opacity="0.12"/>
<rect x="62" y="216" width="12" height="12" fill="#7F77DD" fill-opacity="0.12"/>
<rect x="74" y="216" width="12" height="12" fill="#7F77DD" fill-opacity="0.12"/>
<rect x="86" y="216" width="12" height="12" fill="#7F77DD" fill-opacity="0.12"/>
<rect x="98" y="216" width="12" height="12" fill="#7F77DD" fill-opacity="0.12"/>
<rect x="110" y="216" width="12" height="12" fill="#7F77DD" fill-opacity="0.12"/>
<rect x="122" y="216" width="12" height="12" fill="#7F77DD" fill-opacity="0.12"/>
<rect x="134" y="216" width="12" height="12" fill="#7F77DD" fill-opacity="0.12"/>
<rect x="14" y="228" width="12" height="12" fill="#7F77DD" fill-opacity="0.12"/>
<rect x="26" y="228" width="12" height="12" fill="#7F77DD" fill-opacity="0.12"/>
<rect x="38" y="228" width="12" height="12" fill="#7F77DD" fill-opacity="0.12"/>
<rect x="50" y="228" width="12" height="12" fill="#7F77DD" fill-opacity="0.12"/>
<rect x="62" y="228" width="12" height="12" fill="#7F77DD" fill-opacity="0.12"/>
<rect x="74" y="228" width="12" height="12" fill="#7F77DD" fill-opacity="0.12"/>
<rect x="86" y="228" width="12" height="12" fill="#7F77DD" fill-opacity="0.12"/>
<rect x="98" y="228" width="12" height="12" fill="#7F77DD" fill-opacity="0.12"/>
<rect x="110" y="228" width="12" height="12" fill="#7F77DD" fill-opacity="0.12"/>
<rect x="122" y="228" width="12" height="12" fill="#7F77DD" fill-opacity="0.12"/>
<rect x="134" y="228" width="12" height="12" fill="#7F77DD" fill-opacity="0.12"/>
<rect x="14" y="240" width="12" height="12" fill="#7F77DD" fill-opacity="0.12"/>
<rect x="26" y="240" width="12" height="12" fill="#7F77DD" fill-opacity="0.12"/>
<rect x="38" y="240" width="12" height="12" fill="#7F77DD" fill-opacity="0.12"/>
<rect x="50" y="240" width="12" height="12" fill="#7F77DD" fill-opacity="0.12"/>
<rect x="62" y="240" width="12" height="12" fill="#7F77DD" fill-opacity="0.12"/>
<rect x="74" y="240" width="12" height="12" fill="#7F77DD" fill-opacity="0.12"/>
<rect x="86" y="240" width="12" height="12" fill="#7F77DD" fill-opacity="0.12"/>
<rect x="98" y="240" width="12" height="12" fill="#7F77DD" fill-opacity="0.12"/>
<rect x="110" y="240" width="12" height="12" fill="#7F77DD" fill-opacity="0.12"/>
<rect x="122" y="240" width="12" height="12" fill="#7F77DD" fill-opacity="0.12"/>
<rect x="134" y="240" width="12" height="12" fill="#7F77DD" fill-opacity="0.12"/>
<rect x="14" y="252" width="12" height="12" fill="#7F77DD" fill-opacity="0.12"/>
<rect x="26" y="252" width="12" height="12" fill="#7F77DD" fill-opacity="0.12"/>
<rect x="38" y="252" width="12" height="12" fill="#7F77DD" fill-opacity="0.12"/>
<rect x="50" y="252" width="12" height="12" fill="#7F77DD" fill-opacity="0.12"/>
<rect x="62" y="252" width="12" height="12" fill="#7F77DD" fill-opacity="0.12"/>
<rect x="74" y="252" width="12" height="12" fill="#7F77DD" fill-opacity="0.12"/>
<rect x="86" y="252" width="12" height="12" fill="#7F77DD" fill-opacity="0.12"/>
<rect x="98" y="252" width="12" height="12" fill="#7F77DD" fill-opacity="0.12"/>
<rect x="110" y="252" width="12" height="12" fill="#7F77DD" fill-opacity="0.12"/>
<rect x="122" y="252" width="12" height="12" fill="#7F77DD" fill-opacity="0.12"/>
<rect x="134" y="252" width="12" height="12" fill="#7F77DD" fill-opacity="0.12"/>
<rect x="14" y="264" width="12" height="12" fill="#7F77DD" fill-opacity="0.12"/>
<rect x="26" y="264" width="12" height="12" fill="#7F77DD" fill-opacity="0.12"/>
<rect x="38" y="264" width="12" height="12" fill="#7F77DD" fill-opacity="0.12"/>
<rect x="50" y="264" width="12" height="12" fill="#7F77DD" fill-opacity="0.12"/>
<rect x="62" y="264" width="12" height="12" fill="#7F77DD" fill-opacity="0.12"/>
<rect x="74" y="264" width="12" height="12" fill="#7F77DD" fill-opacity="0.12"/>
<rect x="86" y="264" width="12" height="12" fill="#7F77DD" fill-opacity="0.12"/>
<rect x="98" y="264" width="12" height="12" fill="#7F77DD" fill-opacity="0.12"/>
<rect x="110" y="264" width="12" height="12" fill="#7F77DD" fill-opacity="0.12"/>
<rect x="122" y="264" width="12" height="12" fill="#7F77DD" fill-opacity="0.12"/>
<rect x="134" y="264" width="12" height="12" fill="#7F77DD" fill-opacity="0.12"/>
<rect x="14" y="132" width="12" height="12" fill="#7F77DD" fill-opacity="0.35"/>
<rect x="26" y="132" width="12" height="12" fill="#7F77DD" fill-opacity="0.35"/>
<rect x="38" y="132" width="12" height="12" fill="#7F77DD" fill-opacity="0.35"/>
<rect x="50" y="132" width="12" height="12" fill="#7F77DD" fill-opacity="0.35"/>
<rect x="62" y="132" width="12" height="12" fill="#7F77DD" fill-opacity="0.35"/>
<rect x="74" y="132" width="12" height="12" fill="#7F77DD" fill-opacity="0.35"/>
<rect x="86" y="132" width="12" height="12" fill="#7F77DD" fill-opacity="0.35"/>
<rect x="98" y="132" width="12" height="12" fill="#7F77DD" fill-opacity="0.35"/>
<rect x="110" y="132" width="12" height="12" fill="#7F77DD" fill-opacity="0.35"/>
<rect x="122" y="132" width="12" height="12" fill="#7F77DD" fill-opacity="0.35"/>
<rect x="134" y="132" width="12" height="12" fill="#7F77DD" fill-opacity="0.35"/>
<rect x="14" y="144" width="12" height="12" fill="#7F77DD" fill-opacity="0.35"/>
<rect x="26" y="144" width="12" height="12" fill="#7F77DD" fill-opacity="0.35"/>
<rect x="38" y="144" width="12" height="12" fill="#7F77DD" fill-opacity="0.35"/>
<rect x="50" y="144" width="12" height="12" fill="#7F77DD" fill-opacity="0.35"/>
<rect x="62" y="144" width="12" height="12" fill="#7F77DD" fill-opacity="0.35"/>
<rect x="74" y="144" width="12" height="12" fill="#7F77DD" fill-opacity="0.35"/>
<rect x="86" y="144" width="12" height="12" fill="#7F77DD" fill-opacity="0.35"/>
<rect x="98" y="144" width="12" height="12" fill="#7F77DD" fill-opacity="0.35"/>
<rect x="110" y="144" width="12" height="12" fill="#7F77DD" fill-opacity="0.35"/>
<rect x="122" y="144" width="12" height="12" fill="#7F77DD" fill-opacity="0.35"/>
<rect x="134" y="144" width="12" height="12" fill="#7F77DD" fill-opacity="0.35"/>
<line x1="14" y1="36" x2="146" y2="36" stroke="#c8c8c8" stroke-width="0.6"/>
<line x1="14" y1="48" x2="146" y2="48" stroke="#c8c8c8" stroke-width="0.6"/>
<line x1="14" y1="60" x2="146" y2="60" stroke="#c8c8c8" stroke-width="0.6"/>
<line x1="14" y1="72" x2="146" y2="72" stroke="#c8c8c8" stroke-width="0.6"/>
<line x1="14" y1="84" x2="146" y2="84" stroke="#c8c8c8" stroke-width="0.6"/>
<line x1="14" y1="96" x2="146" y2="96" stroke="#c8c8c8" stroke-width="0.6"/>
<line x1="14" y1="108" x2="146" y2="108" stroke="#c8c8c8" stroke-width="0.6"/>
<line x1="14" y1="120" x2="146" y2="120" stroke="#c8c8c8" stroke-width="0.6"/>
<line x1="14" y1="132" x2="146" y2="132" stroke="#c8c8c8" stroke-width="0.6"/>
<line x1="14" y1="144" x2="146" y2="144" stroke="#c8c8c8" stroke-width="0.6"/>
<line x1="14" y1="156" x2="146" y2="156" stroke="#c8c8c8" stroke-width="0.6"/>
<line x1="14" y1="168" x2="146" y2="168" stroke="#c8c8c8" stroke-width="0.6"/>
<line x1="14" y1="180" x2="146" y2="180" stroke="#c8c8c8" stroke-width="0.6"/>
<line x1="14" y1="192" x2="146" y2="192" stroke="#c8c8c8" stroke-width="0.6"/>
<line x1="14" y1="204" x2="146" y2="204" stroke="#c8c8c8" stroke-width="0.6"/>
<line x1="14" y1="216" x2="146" y2="216" stroke="#c8c8c8" stroke-width="0.6"/>
<line x1="14" y1="228" x2="146" y2="228" stroke="#c8c8c8" stroke-width="0.6"/>
<line x1="14" y1="240" x2="146" y2="240" stroke="#c8c8c8" stroke-width="0.6"/>
<line x1="14" y1="252" x2="146" y2="252" stroke="#c8c8c8" stroke-width="0.6"/>
<line x1="14" y1="264" x2="146" y2="264" stroke="#c8c8c8" stroke-width="0.6"/>
<line x1="14" y1="276" x2="146" y2="276" stroke="#c8c8c8" stroke-width="0.6"/>
<line x1="14" y1="288" x2="146" y2="288" stroke="#c8c8c8" stroke-width="0.6"/>
<line x1="14" y1="300" x2="146" y2="300" stroke="#c8c8c8" stroke-width="0.6"/>
<line x1="14" y1="312" x2="146" y2="312" stroke="#c8c8c8" stroke-width="0.6"/>
<line x1="14" y1="324" x2="146" y2="324" stroke="#c8c8c8" stroke-width="0.6"/>
<line x1="14" y1="36" x2="14" y2="324" stroke="#c8c8c8" stroke-width="0.6"/>
<line x1="26" y1="36" x2="26" y2="324" stroke="#c8c8c8" stroke-width="0.6"/>
<line x1="38" y1="36" x2="38" y2="324" stroke="#c8c8c8" stroke-width="0.6"/>
<line x1="50" y1="36" x2="50" y2="324" stroke="#c8c8c8" stroke-width="0.6"/>
<line x1="62" y1="36" x2="62" y2="324" stroke="#c8c8c8" stroke-width="0.6"/>
<line x1="74" y1="36" x2="74" y2="324" stroke="#c8c8c8" stroke-width="0.6"/>
<line x1="86" y1="36" x2="86" y2="324" stroke="#c8c8c8" stroke-width="0.6"/>
<line x1="98" y1="36" x2="98" y2="324" stroke="#c8c8c8" stroke-width="0.6"/>
<line x1="110" y1="36" x2="110" y2="324" stroke="#c8c8c8" stroke-width="0.6"/>
<line x1="122" y1="36" x2="122" y2="324" stroke="#c8c8c8" stroke-width="0.6"/>
<line x1="134" y1="36" x2="134" y2="324" stroke="#c8c8c8" stroke-width="0.6"/>
<line x1="146" y1="36" x2="146" y2="324" stroke="#c8c8c8" stroke-width="0.6"/>
<rect x="14" y="36" width="132" height="288" fill="none" stroke="#333" stroke-width="1.4"/>
<circle cx="44.0" cy="66.0" r="4.32" fill="#1D9E75"/>
<text x="44.0" y="69.5" font-size="4" font-weight="700" fill="white" text-anchor="middle">s0</text>
<circle cx="116.0" cy="282.0" r="4.32" fill="#1D9E75"/>
<text x="116.0" y="285.5" font-size="4" font-weight="700" fill="white" text-anchor="middle">t0</text>
<circle cx="128.0" cy="78.0" r="4.32" fill="#D85A30"/>
<text x="128.0" y="81.5" font-size="4" font-weight="700" fill="white" text-anchor="middle">s1</text>
<circle cx="56.0" cy="294.0" r="4.32" fill="#D85A30"/>
<text x="56.0" y="297.5" font-size="4" font-weight="700" fill="white" text-anchor="middle">t1</text>
</svg>